<?xml version="1.0" encoding="UTF-8" standalone="no"?>
<svg
   height="300"
   width="300"
   version="1.1"
   viewBox="0 0 79.374999 79.375002"
   id="svg374"
   sodipodi:docname="pine64-White-black.svg"
   inkscape:version="1.2.2 (b0a8486541, 2022-12-01)"
   xmlns:inkscape="http://www.inkscape.org/namespaces/inkscape"
   xmlns:sodipodi="http://sodipodi.sourceforge.net/DTD/sodipodi-0.dtd"
   xmlns="http://www.w3.org/2000/svg"
   xmlns:svg="http://www.w3.org/2000/svg">
  <defs
     id="defs378" />
  <sodipodi:namedview
     id="namedview376"
     pagecolor="#ffffff"
     bordercolor="#666666"
     borderopacity="1.0"
     inkscape:showpageshadow="2"
     inkscape:pageopacity="0"
     inkscape:pagecheckerboard="true"
     inkscape:deskcolor="#d1d1d1"
     showgrid="false"
     inkscape:zoom="0.78666667"
     inkscape:cx="150"
     inkscape:cy="150.63559"
     inkscape:window-width="1850"
     inkscape:window-height="1009"
     inkscape:window-x="70"
     inkscape:window-y="34"
     inkscape:window-maximized="1"
     inkscape:current-layer="svg374" />
  <path
     style="paint-order:stroke fill markers"
     fill="#fff"
     d="m39.7 23.09c-1.035 1.207-2.165 2.329-3.188 3.546 0.8313 0.3543 1.674 0.6757 2.496 1.054 0.326 0.1356 0.6968 0.34 1.044 0.1447 0.9625-0.4009 1.922-0.8127 2.888-1.206-1.091-1.169-2.122-2.395-3.24-3.538zm5.758 3.819c-1.292 0.6026-2.6 1.169-3.888 1.784 1.848 0.8139 3.689 1.652 5.551 2.436-0.5381-1.413-1.073-2.827-1.663-4.22zm-3.888 1.784-0.00053-0.00053-0.0011 0.001c0.000529-0.000233 0.0011-0.000291 0.0016-0.000529zm-7.696-1.782c-0.5397 1.402-1.129 2.786-1.618 4.207 1.856-0.7781 3.69-1.611 5.536-2.417-1.299-0.6098-2.603-1.212-3.918-1.789zm5.842 2.357c-0.3485 0.05295-0.6568 0.2444-0.9798 0.3778v0.000529c-2.277 0.9538-4.544 1.934-6.817 2.897 1.562 0.7113 3.162 1.345 4.735 2.035 1.027 0.4246 2.035 0.8855 3.073 1.286 2.571-1.121 5.176-2.168 7.732-3.321-2.133-0.9204-4.268-1.837-6.407-2.736-0.4446-0.184-0.8733-0.4088-1.336-0.539zm10.44 3.328c-2.891 1.275-5.794 2.517-8.671 3.815 2.891 1.26 5.777 2.543 8.672 3.796 0.02019-2.536 0.02347-5.072-0.0011-7.611zm-8.671 3.815c-0.000793-0.00037-0.0019-0.000661-0.0026-0.001l-0.0011 0.0026c0.0013-0.000529 0.0024-0.001 0.0036-0.0016zm-12.29-3.71-0.000529 0.001c-0.0485 2.542-0.0066 5.09-0.02429 7.636 2.902-1.262 5.811-2.526 8.699-3.824-2.892-1.262-5.787-2.531-8.674-3.813zm10.47 4.412c-2.952 1.225-5.887 2.498-8.829 3.753 2.942 1.258 5.886 2.514 8.834 3.758 2.941-1.246 5.878-2.495 8.814-3.758-2.931-1.274-5.871-2.52-8.819-3.753zm12.3 3.721c-3.511 1.455-7.022 2.92-10.54 4.362l-0.0016 0.0011c2.422 1.071 4.841 2.144 7.274 3.185 1.082-2.517 2.191-5.028 3.266-7.548zm-24.56 0.03204c1.134 2.494 2.203 5.018 3.285 7.534 2.441-1.023 4.858-2.104 7.279-3.176-3.518-1.447-7.027-2.938-10.56-4.358zm12.35 4.96c-0.2506-0.01513-0.5033 0.1506-0.7405 0.2351l-0.000529 0.00053c-2.358 1.04-4.722 2.063-7.081 3.099 2.212 0.9897 4.439 1.946 6.658 2.915 0.1065 0.0668 0.3178 0.0983 0.3028 0.2641 0.0282 1.315-0.01861 2.63 0.02119 3.945 0.5191-0.004 1.04-0.0021 1.56 0 0.0051-1.238-0.0011-2.477-0.0011-3.714 0.02363-0.132-0.0385-0.3462 0.1276-0.4026 2.268-1.021 4.564-1.979 6.831-3.002-2.466-1.115-4.952-2.172-7.428-3.255-0.08233-0.05502-0.1656-0.08023-0.2491-0.08527z"
     id="path372" />
</svg>
