<svg viewBox="-91 0 512 512" xmlns="http://www.w3.org/2000/svg"><path d="m90 0v45 .0625.003906c-.035156 41.0625-33.421875 74.933594-75 74.933594h-15v120h60v107c0 90.980469 74.019531 165 165 165h105v-150h-105c-8.269531 0-15-6.730469-15-15v-107h120v-120h-120v-120zm210 150v60h-120v137c0 24.8125 20.1875 45 45 45h75v90h-75c-74.4375 0-135-60.5625-135-135v-137h-60v-61.066406c20.941406-3.007813 39.910156-12.222656 54.972656-25.710938l.03125.039063c21.339844-19.101563 34.996094-47.167969 34.996094-78.261719v-15h60v120zm0 0"/></svg>