<svg version="1.1" id="Layer_1" xmlns="http://www.w3.org/2000/svg" xmlns:xlink="http://www.w3.org/1999/xlink" x="0px" y="0px" viewBox="0 0 512.082 512.082" style="enable-background:new 0 0 512.082 512.082;" xml:space="preserve">
<g transform="translate(1 1)">
	<g>
		<g>
			<path d="M202.867,328.469c11.947-3.413,19.627-13.653,20.48-27.307s-5.973-25.6-17.92-29.867l-23.04-9.387
				c-83.627-34.987-83.627-34.987-89.6-34.987c-9.387,0-17.92,4.267-23.04,12.8c-11.093,16.213-12.8,60.587-10.24,85.333
				c1.707,11.093,3.413,18.773,5.973,23.893c5.12,8.533,12.8,14.507,22.187,14.507c0.853,0,0.853,0,1.707,0
				c5.12,0,11.947-2.56,81.067-24.747C194.333,331.029,201.16,329.322,202.867,328.469z M88.52,346.389
				c-4.267,0-6.827-3.413-7.68-5.12c-0.853-2.56-3.413-6.827-4.267-17.92c-2.56-26.453,1.707-64,7.68-74.24
				c2.56-3.413,5.12-5.12,9.387-5.12c2.56,0,17.92,5.973,83.627,33.28l23.04,9.387c5.12,2.56,7.68,7.68,7.68,13.653
				c-0.853,5.973-3.413,10.24-8.533,11.947c-1.707,0-33.28,10.24-33.28,10.24C103.88,342.975,91.08,346.389,88.52,346.389z"/>
			<path d="M243.827,345.535c-12.8-5.12-26.453-1.707-34.133,7.68c0,0-14.507,17.067-16.213,18.773
				c-58.88,69.12-58.88,69.973-60.587,75.093c-1.707,3.413-1.707,7.68-1.707,11.093c0.853,5.12,3.413,10.24,6.827,14.507
				c13.653,16.213,70.827,38.4,97.28,38.4c1.707,0,3.413,0,5.973,0c10.24-1.707,17.067-7.68,20.48-16.213
				c1.707-5.12,1.707-5.973,1.707-87.04c0,0,0-32.427,0-34.133C263.453,360.896,256.627,350.655,243.827,345.535z M246.387,407.829
				c0,67.413,0,78.507-0.853,81.067c-1.707,2.56-4.267,4.267-7.68,5.12c-17.067,2.56-75.947-18.773-87.04-31.573
				c-1.707-2.56-2.56-4.267-2.56-5.973c0-0.853,0-2.56,0.853-3.413c0.853-2.56,11.947-16.213,57.173-69.973
				c3.413-2.56,7.68-8.533,17.067-18.773c2.56-3.413,8.533-5.12,14.507-2.56c5.973,1.707,8.533,5.973,8.533,10.24
				C246.387,372.842,246.387,372.842,246.387,407.829z"/>
			<path d="M441.8,360.042c-4.267-3.413-4.267-3.413-81.92-29.013c-11.947-4.267-30.72-10.24-32.427-11.093
				c-11.093-5.12-23.893-0.853-32.427,9.387c-8.533,10.24-9.387,24.747-2.56,34.987l12.8,21.333
				c46.933,77.653,47.787,77.653,52.053,81.067s10.24,5.12,15.36,5.12c3.413,0,6.827-0.853,11.093-0.853
				c21.333-8.533,64-63.147,67.413-86.187C452.893,374.549,449.48,366.016,441.8,360.042z M377.8,453.909
				c-4.267,0.853-6.827,0.853-9.387-0.853s-12.8-17.92-48.64-76.8l-12.8-21.333c-2.56-4.267-2.56-10.24,1.707-15.36
				c2.56-3.413,5.973-5.12,9.387-5.12c0.853,0,1.707,0,4.267,0.853s8.533,3.413,33.28,11.093
				c62.293,20.48,75.093,24.747,76.8,26.453c2.56,1.707,2.56,5.973,2.56,8.533C432.413,398.442,393.16,447.936,377.8,453.909z"/>
			<path d="M315.507,293.482c0.853,0,0.853,0,1.707,0s1.707,0,3.413-0.853c3.413-0.853,11.947-3.413,23.893-5.973
				c87.893-21.333,87.893-21.333,93.013-24.747c7.68-5.12,11.947-13.653,11.093-23.04c0,0,0-0.853,0-1.707
				c-2.56-23.893-40.107-79.36-60.587-89.6c-9.387-4.267-18.773-4.267-26.453,0.853c-5.12,3.413-5.12,3.413-52.907,69.12
				c0,0-19.627,26.453-20.48,27.307c-7.68,9.387-8.533,23.04-0.853,34.133C294.173,289.216,305.266,294.336,315.507,293.482z
				 M301,255.936c0.853,0,0.853,0,21.333-28.16c35.84-48.64,46.933-63.147,48.64-64.853c0.853-0.853,2.56-1.707,4.267-1.707
				s3.413,0.853,5.12,1.707c14.507,7.68,48.64,57.173,51.2,75.947v0.853c0,4.267-0.853,6.827-3.413,8.533
				s-17.067,5.12-87.893,22.187c-11.093,2.56-17.92,4.267-22.187,5.973c-0.853,0-1.707,0-2.56,0
				c-5.12,0.853-10.24-1.707-13.653-6.827C298.44,264.469,298.44,259.349,301,255.936z"/>
			<path d="M253.213,18.709c-2.56-9.387-9.387-16.213-19.627-18.773c-23.893-5.973-109.227,17.92-126.293,35.84
				c-6.827,6.827-10.24,16.213-7.68,24.747c0.853,0.853,0.853,0.853,0.853,1.707c2.56,5.12,80.213,128,104.107,164.693
				c10.24,16.213,20.48,24.747,32.427,24.747c2.56,0,5.973,0,8.533-0.853c14.507-4.267,21.333-18.773,20.48-41.813
				C265.16,179.136,254.92,28.096,253.213,18.709z M240.413,233.749c-6.827,2.56-13.653-2.56-21.333-15.36
				c-39.253-61.44-97.28-152.747-103.253-162.987c0-2.56,0.853-5.12,3.413-7.68c12.8-13.653,91.307-34.987,110.08-30.72
				c4.267,0.853,6.827,2.56,7.68,5.973c0.853,11.093,11.093,151.893,11.947,186.027C249.8,223.509,247.24,232.042,240.413,233.749z"
				/>
		</g>
	</g>
</g>
</svg>