<?xml version="1.0" encoding="UTF-8" standalone="no"?>
<!-- Created with Inkscape (http://www.inkscape.org/) -->

<svg
   width="164"
   height="164"
   viewBox="0 0 43.391667 43.391667"
   version="1.1"
   id="svg970"
   inkscape:version="1.1.2 (0a00cf5339, 2022-02-04)"
   sodipodi:docname="github.svg"
   xmlns:inkscape="http://www.inkscape.org/namespaces/inkscape"
   xmlns:sodipodi="http://sodipodi.sourceforge.net/DTD/sodipodi-0.dtd"
   xmlns="http://www.w3.org/2000/svg"
   xmlns:svg="http://www.w3.org/2000/svg">
  <sodipodi:namedview
     id="namedview972"
     pagecolor="#ffffff"
     bordercolor="#666666"
     borderopacity="1.0"
     inkscape:pageshadow="2"
     inkscape:pageopacity="0.0"
     inkscape:pagecheckerboard="0"
     inkscape:document-units="mm"
     showgrid="false"
     width="120mm"
     units="px"
     fit-margin-top="0"
     fit-margin-left="0"
     fit-margin-right="0"
     fit-margin-bottom="0"
     inkscape:zoom="2.078763"
     inkscape:cx="55.321362"
     inkscape:cy="88.514179"
     inkscape:window-width="1846"
     inkscape:window-height="1010"
     inkscape:window-x="74"
     inkscape:window-y="33"
     inkscape:window-maximized="1"
     inkscape:current-layer="layer1" />
  <defs
     id="defs967" />
  <g
     inkscape:label="Warstwa 1"
     inkscape:groupmode="layer"
     id="layer1"
     transform="translate(5.2590181,3.7974344)">
    <path
       d="m 16.492919,-2.5289537 c -11.7640826,0 -21.3035466,9.5377 -21.3035466,21.3035407 0,9.41247 6.104114,17.39794 14.568664,20.21487 1.0646826,0.19721 1.4555606,-0.46214 1.4555606,-1.02482 0,-0.508 -0.01976,-2.18616 -0.02893,-3.96628 -5.9266666,1.2887 -7.1772636,-2.51354 -7.1772636,-2.51354 -0.96908,-2.46239 -2.365375,-3.11714 -2.365375,-3.11714 -1.93286904,-1.32221 0.145698,-1.29505 0.145698,-1.29505 2.139244,0.14993 3.265663,2.19569 3.265663,2.19569 1.900061,3.25649 4.9836916,2.31493 6.1993636,1.77059 0.191205,-1.37689 0.743303,-2.31704 1.35255,-2.84868 -4.7318076,-0.53869 -9.7059746,-2.36537 -9.7059746,-10.5283 0,-2.32586 0.832203,-4.22628 2.194983,-5.71818 -0.221191,-0.53692 -0.950383,-2.7033307 0.206375,-5.6377407 0,0 1.788936,-0.57256 5.8599916,2.1837 1.69933,-0.47202 3.52178,-0.70873 5.332241,-0.71685 1.81045,0.008 3.63431,0.24483 5.33682,0.71685 4.06612,-2.75626 5.85258,-2.1837 5.85258,-2.1837 1.15958,2.93441 0.43004,5.1008207 0.20885,5.6377407 1.36595,1.4919 2.19251,3.39232 2.19251,5.71818 0,8.18233 -4.98369,9.98396 -9.72749,10.51137 0.76411,0.6611 1.44497,1.95756 1.44497,3.94511 0,2.85045 -0.0247,5.14456 -0.0247,5.84623 0,0.56692 0.38347,1.2312 1.46332,1.022 8.45997,-2.8201 14.55632,-10.80276 14.55632,-20.21205 0,-11.7658407 -9.53805,-21.3035407 -21.30319,-21.3035407"
       style="fill:#1b1817;fill-opacity:1;fill-rule:evenodd;stroke:none;stroke-width:0.0352778"
       id="path16" />
    <path
       d="m 3.2581054,28.058287 c -0.04692,0.10619 -0.21343,0.13758 -0.365125,0.0649 -0.154516,-0.0695 -0.2413,-0.21378 -0.191205,-0.31997 0.04586,-0.10865 0.212725,-0.13899 0.366889,-0.0667 0.154869,0.0698 0.243064,0.21555 0.189441,0.32173 v 0"
       style="fill:#1b1817;fill-opacity:1;fill-rule:nonzero;stroke:none;stroke-width:0.0352778"
       id="path18" />
    <path
       d="m 4.1210004,29.020667 c -0.1016,0.0942 -0.300214,0.0504 -0.434975,-0.0984 -0.139347,-0.14852 -0.165453,-0.34713 -0.06244,-0.44273 0.104775,-0.0938 0.297392,-0.0497 0.437092,0.0984 0.139347,0.15029 0.166511,0.34749 0.06033,0.44274 v 0"
       style="fill:#1b1817;fill-opacity:1;fill-rule:nonzero;stroke:none;stroke-width:0.0352778"
       id="path20" />
    <path
       d="m 4.9609644,30.247627 c -0.130528,0.0907 -0.343959,0.006 -0.475898,-0.1838 -0.130527,-0.18944 -0.130527,-0.41663 0.0028,-0.50764 0.132292,-0.091 0.342548,-0.009 0.47625,0.17885 0.130175,0.19262 0.130175,0.41981 -0.0032,0.51259 v 0"
       style="fill:#1b1817;fill-opacity:1;fill-rule:nonzero;stroke:none;stroke-width:0.0352778"
       id="path22" />
    <path
       d="m 6.1117254,31.432957 c -0.11677,0.12877 -0.365478,0.0942 -0.547511,-0.0815 -0.186267,-0.1718 -0.238125,-0.41557 -0.121003,-0.54433 0.11818,-0.12912 0.3683,-0.0928 0.551744,0.0815 0.184856,0.17145 0.2413,0.41698 0.11677,0.54433 v 0"
       style="fill:#1b1817;fill-opacity:1;fill-rule:nonzero;stroke:none;stroke-width:0.0352778"
       id="path24" />
    <path
       d="m 7.6992254,32.121227 c -0.05151,0.16687 -0.291042,0.24271 -0.532342,0.17181 -0.240947,-0.073 -0.398639,-0.26847 -0.349955,-0.4371 0.05009,-0.16792 0.290688,-0.24694 0.533752,-0.17109 0.240595,0.0727 0.398639,0.2667 0.348545,0.43638 v 0"
       style="fill:#1b1817;fill-opacity:1;fill-rule:nonzero;stroke:none;stroke-width:0.0352778"
       id="path26" />
    <path
       d="m 9.4426524,32.248937 c 0.006,0.17568 -0.198613,0.32138 -0.451908,0.32455 -0.254705,0.006 -0.460728,-0.13652 -0.46355,-0.30938 0,-0.17745 0.200025,-0.32174 0.454731,-0.32597 0.253294,-0.005 0.460727,0.13617 0.460727,0.3108 v 0"
       style="fill:#1b1817;fill-opacity:1;fill-rule:nonzero;stroke:none;stroke-width:0.0352778"
       id="path28" />
    <path
       d="m 11.065077,31.972707 c 0.03034,0.17145 -0.145697,0.34749 -0.397227,0.39441 -0.247298,0.0452 -0.47625,-0.0607 -0.507648,-0.23072 -0.03069,-0.17568 0.14852,-0.35172 0.395464,-0.39723 0.251884,-0.0437 0.477309,0.0593 0.509411,0.23354 v 0"
       style="fill:#1b1817;fill-opacity:1;fill-rule:nonzero;stroke:none;stroke-width:0.0352778"
       id="path30" />
  </g>
</svg>
