<?xml version="1.0" encoding="UTF-8" standalone="no"?>
<!DOCTYPE svg PUBLIC "-//W3C//DTD SVG 20010904//EN" "http://www.w3.org/TR/2001/REC-SVG-20010904/DTD/svg10.dtd">
<svg version="1.0" xmlns="http://www.w3.org/2000/svg" width="1024.000000pt" height="1024.000000pt" viewBox="0 0 1024.000000 1024.000000" preserveAspectRatio="xMidYMid meet">
<metadata>
Created by potrace 1.11, written by Peter Selinger 2001-2013
</metadata>
<g transform="translate(0.000000,1024.000000) scale(0.100000,-0.100000)" fill="#FFFFFF" stroke="none">
<path d="M4858 10235 c-2 -2 -50 -6 -108 -9 -58 -4 -116 -8 -130 -11 -14 -2 -52 -6 -85 -9 -61 -6 -78 -8 -197 -27 l-68 -11 -1 -36 c0 -39 0 -1597 1 -1668 l0 -41 53 14 c55 14 294 59 362 67 127 16 214 20 430 21 239 0 363 -7 490 -28 17 -3 50 -9 75 -12 59 -10 59 -9 178 -35 57 -12 106 -20 109 -16 7 7 10 1736 2 1736 -3 0 -52 7 -110 16 -57 9 -123 17 -146 19 -23 2 -65 7 -95 10 -29 4 -75 9 -103 11 -63 5 -652 13 -657 9z"/>
<path d="M3350 9924 c-36 -14 -77 -29 -91 -34 -15 -4 -42 -15 -60 -23 -19 -8 -83 -36 -144 -63 -164 -71 -446 -218 -590 -307 -401 -249 -702 -490 -1010 -807 -126 -129 -169 -176 -209 -225 -20 -24 -43 -50 -49 -57 -43 -44 -244 -312 -326 -436 -114 -170 -156 -238 -254 -417 -108 -197 -242 -495 -313 -697 -14 -40 -28 -80 -31 -88 -3 -8 -7 -19 -9 -25 -2 -5 -17 -55 -34 -110 -93 -296 -171 -669 -196 -935 -2 -30 -7 -64 -9 -75 -11 -54 -20 -275 -19 -510 0 -273 7 -407 29 -585 2 -19 7 -60 11 -90 9 -84 61 -369 90 -489 194 -826 573 -1558 1149 -2220 78 -90 271 -286 389 -396 180 -167 480 -396 709 -541 334 -212 671 -373 1067 -513 106 -38 357 -113 417 -126 10 -2 56 -13 103 -24 120 -28 344 -68 480 -86 253 -32 364 -39 670 -39 238 0 408 6 500 19 14 2 52 6 85 10 61 6 75 8 155 20 90 13 107 16 215 36 122 23 293 61 370 83 162 47 207 60 275 83 804 267 1508 712 2095 1323 68 71 96 101 192 210 31 35 159 194 206 255 248 326 507 787 667 1190 84 211 189 548 226 724 8 41 17 77 19 81 4 6 13 51 20 95 1 11 12 74 23 140 11 66 26 163 32 215 6 52 13 109 15 125 26 204 26 805 0 1010 -2 17 -6 53 -9 80 -5 46 -16 124 -31 230 -16 109 -48 261 -92 440 -177 722 -548 1446 -1039 2030 -146 174 -343 379 -485 505 -40 36 -80 72 -88 80 -9 8 -39 33 -66 55 -28 22 -52 42 -55 45 -61 61 -366 277 -575 407 -94 58 -287 163 -415 226 -236 115 -513 227 -527 213 -12 -12 -9 -1847 2 -1861 6 -7 54 -40 108 -74 297 -185 599 -454 827 -736 356 -439 614 -999 706 -1535 4 -25 8 -47 9 -50 1 -3 5 -32 9 -65 4 -32 9 -67 11 -76 26 -133 26 -797 0 -838 -2 -4 -6 -35 -9 -69 -3 -35 -8 -67 -10 -70 -2 -4 -7 -27 -10 -52 -3 -25 -8 -54 -11 -65 -7 -28 -36 -156 -40 -179 -11 -48 -101 -320 -136 -408 -262 -657 -729 -1223 -1329 -1609 -98 -64 -225 -137 -290 -168 -25 -12 -52 -25 -60 -30 -54 -32 -335 -147 -382 -156 -9 -2 -25 -8 -35 -13 -51 -28 -435 -119 -578 -138 -27 -3 -61 -8 -75 -10 -206 -27 -677 -27 -840 0 -14 3 -47 7 -75 11 -152 19 -515 106 -567 135 -10 6 -24 10 -31 10 -24 0 -264 98 -390 159 -270 130 -516 292 -748 491 -83 71 -281 269 -344 344 -28 32 -55 64 -60 70 -101 110 -304 421 -412 631 -74 144 -182 414 -220 550 -31 109 -62 233 -72 285 -6 30 -14 66 -16 80 -7 32 -23 143 -30 195 -28 225 -28 660 1 850 2 17 6 46 8 65 58 442 249 952 511 1360 47 74 198 281 226 310 8 8 36 42 64 75 71 86 277 289 376 371 145 121 239 188 459 328 l34 23 1 936 c0 516 0 937 0 936 0 0 -29 -11 -65 -25z"/>
<path d="M4968 7675 c-2 -1 -40 -5 -84 -9 -45 -3 -88 -8 -95 -10 -8 -3 -37 -7 -66 -10 -28 -3 -80 -12 -115 -20 -35 -8 -75 -17 -90 -20 -27 -4 -239 -67 -247 -72 -2 -2 -4 -3919 -2 -3970 1 -7 11 -14 24 -17 12 -3 60 -17 106 -31 112 -35 264 -67 386 -81 28 -4 61 -9 75 -12 56 -12 453 -8 552 5 147 19 328 57 453 94 l107 33 0 1955 c-1 1075 -1 1971 -1 1991 l-1 35 -127 37 c-71 19 -164 43 -208 52 -44 9 -87 18 -95 20 -8 1 -44 6 -80 10 -36 4 -74 9 -85 12 -21 4 -403 12 -407 8z"/>
</g>
</svg>