<?xml version="1.0" encoding="UTF-8" standalone="no"?>
<!-- Created with Inkscape (http://www.inkscape.org/) -->

<svg
   xmlns:dc="http://purl.org/dc/elements/1.1/"
   xmlns:cc="http://creativecommons.org/ns#"
   xmlns:rdf="http://www.w3.org/1999/02/22-rdf-syntax-ns#"
   xmlns:svg="http://www.w3.org/2000/svg"
   xmlns="http://www.w3.org/2000/svg"
   xmlns:xlink="http://www.w3.org/1999/xlink"
   xmlns:sodipodi="http://sodipodi.sourceforge.net/DTD/sodipodi-0.dtd"
   xmlns:inkscape="http://www.inkscape.org/namespaces/inkscape"
   width="2900"
   height="2300"
   viewBox="0 0 2900 2300"
   id="svg2"
   version="1.1"
   inkscape:version="0.91 r13725"
   sodipodi:docname="android-components-icons.svg"
   inkscape:export-filename="/home/michalis/sources/castle-engine/trunk/www/android-components-icons/android-components-icons.png"
   inkscape:export-xdpi="90"
   inkscape:export-ydpi="90">
  <defs
     id="defs4">
    <marker
       inkscape:stockid="Arrow1Lend"
       orient="auto"
       refY="0.0"
       refX="0.0"
       id="marker5400"
       style="overflow:visible;"
       inkscape:isstock="true">
      <path
         id="path5402"
         d="M 0.0,0.0 L 5.0,-5.0 L -12.5,0.0 L 5.0,5.0 L 0.0,0.0 z "
         style="fill-rule:evenodd;stroke:#000000;stroke-width:1pt;stroke-opacity:1;fill:#000000;fill-opacity:1"
         transform="scale(0.8) rotate(180) translate(12.5,0)" />
    </marker>
    <marker
       inkscape:isstock="true"
       style="overflow:visible;"
       id="marker5284"
       refX="0.0"
       refY="0.0"
       orient="auto"
       inkscape:stockid="Arrow1Lend"
       inkscape:collect="always">
      <path
         transform="scale(0.8) rotate(180) translate(12.5,0)"
         style="fill-rule:evenodd;stroke:#000000;stroke-width:1pt;stroke-opacity:1;fill:#000000;fill-opacity:1"
         d="M 0.0,0.0 L 5.0,-5.0 L -12.5,0.0 L 5.0,5.0 L 0.0,0.0 z "
         id="path5286" />
    </marker>
    <marker
       inkscape:stockid="Arrow1Lend"
       orient="auto"
       refY="0.0"
       refX="0.0"
       id="marker5234"
       style="overflow:visible;"
       inkscape:isstock="true"
       inkscape:collect="always">
      <path
         id="path5236"
         d="M 0.0,0.0 L 5.0,-5.0 L -12.5,0.0 L 5.0,5.0 L 0.0,0.0 z "
         style="fill-rule:evenodd;stroke:#000000;stroke-width:1pt;stroke-opacity:1;fill:#000000;fill-opacity:1"
         transform="scale(0.8) rotate(180) translate(12.5,0)" />
    </marker>
    <marker
       inkscape:isstock="true"
       style="overflow:visible;"
       id="marker5186"
       refX="0.0"
       refY="0.0"
       orient="auto"
       inkscape:stockid="Arrow1Lend"
       inkscape:collect="always">
      <path
         transform="scale(0.8) rotate(180) translate(12.5,0)"
         style="fill-rule:evenodd;stroke:#000000;stroke-width:1pt;stroke-opacity:1;fill:#000000;fill-opacity:1"
         d="M 0.0,0.0 L 5.0,-5.0 L -12.5,0.0 L 5.0,5.0 L 0.0,0.0 z "
         id="path5188" />
    </marker>
    <marker
       inkscape:isstock="true"
       style="overflow:visible;"
       id="marker5136"
       refX="0.0"
       refY="0.0"
       orient="auto"
       inkscape:stockid="Arrow1Lend">
      <path
         transform="scale(0.8) rotate(180) translate(12.5,0)"
         style="fill-rule:evenodd;stroke:#000000;stroke-width:1pt;stroke-opacity:1;fill:#000000;fill-opacity:1"
         d="M 0.0,0.0 L 5.0,-5.0 L -12.5,0.0 L 5.0,5.0 L 0.0,0.0 z "
         id="path5138" />
    </marker>
    <marker
       inkscape:stockid="Arrow1Lend"
       orient="auto"
       refY="0.0"
       refX="0.0"
       id="Arrow1Lend"
       style="overflow:visible;"
       inkscape:isstock="true"
       inkscape:collect="always">
      <path
         id="path4823"
         d="M 0.0,0.0 L 5.0,-5.0 L -12.5,0.0 L 5.0,5.0 L 0.0,0.0 z "
         style="fill-rule:evenodd;stroke:#000000;stroke-width:1pt;stroke-opacity:1;fill:#000000;fill-opacity:1"
         transform="scale(0.8) rotate(180) translate(12.5,0)" />
    </marker>
    <linearGradient
       id="linearGradient3216">
      <stop
         id="stop3218"
         offset="0"
         style="stop-color:#37483e;stop-opacity:1;" />
      <stop
         id="stop3220"
         offset="1"
         style="stop-color:#1a231e;stop-opacity:1;" />
    </linearGradient>
    <linearGradient
       id="linearGradient4771">
      <stop
         id="stop4773"
         offset="0"
         style="stop-color:#555753;stop-opacity:1;" />
      <stop
         id="stop4775"
         offset="1"
         style="stop-color:#000000;stop-opacity:1;" />
    </linearGradient>
    <linearGradient
       id="linearGradient3167">
      <stop
         id="stop3169"
         offset="0"
         style="stop-color:#2e3436;stop-opacity:1;" />
      <stop
         style="stop-color:#2e3436;stop-opacity:1;"
         offset="0.06061278"
         id="stop3175" />
      <stop
         id="stop3177"
         offset="0.40697148"
         style="stop-color:#7d8074;stop-opacity:1;" />
      <stop
         id="stop3171"
         offset="1"
         style="stop-color:#807d74;stop-opacity:1;" />
    </linearGradient>
    <inkscape:perspective
       id="perspective2503"
       inkscape:persp3d-origin="0.75882012 : 1.3520001 : 1"
       inkscape:vp_z="1.5176402 : 2.0280001 : 1"
       inkscape:vp_y="0 : 999.99999 : 0"
       inkscape:vp_x="0 : 2.0280001 : 1"
       sodipodi:type="inkscape:persp3d" />
    <inkscape:perspective
       sodipodi:type="inkscape:persp3d"
       inkscape:vp_x="0 : 0.57205366 : 1"
       inkscape:vp_y="0 : 999.99999 : 0"
       inkscape:vp_z="2.9611363 : 0.57205366 : 1"
       inkscape:persp3d-origin="1.4805682 : 0.38136911 : 1"
       id="perspective3404" />
    <linearGradient
       gradientUnits="userSpaceOnUse"
       y2="3.4864626"
       x2="0.077149987"
       y1="4.0923672"
       x1="-0.63802892"
       id="linearGradient3185"
       xlink:href="#linearGradient3167"
       inkscape:collect="always" />
    <linearGradient
       gradientUnits="userSpaceOnUse"
       y2="3.7383499"
       x2="0.36128464"
       y1="3.7383499"
       x1="-0.77867138"
       id="linearGradient3211"
       xlink:href="#linearGradient3167"
       inkscape:collect="always" />
    <linearGradient
       gradientUnits="userSpaceOnUse"
       y2="4.8427873"
       x2="0.43797177"
       y1="4.8427873"
       x1="-0.47767425"
       id="linearGradient3200"
       xlink:href="#linearGradient3167"
       inkscape:collect="always" />
    <radialGradient
       r="0.98066193"
       fy="3.8664722"
       fx="0.11591901"
       cy="3.8664722"
       cx="0.11591901"
       gradientTransform="matrix(-1.0661238,-0.1271125,0.04318003,-0.3621611,0.7417425,4.8127456)"
       gradientUnits="userSpaceOnUse"
       id="radialGradient4815"
       xlink:href="#linearGradient3216"
       inkscape:collect="always" />
    <radialGradient
       r="0.57726377"
       fy="3.3172085"
       fx="0.8252458"
       cy="3.3172085"
       cx="0.8252458"
       gradientTransform="matrix(0.1927463,-0.2233755,1.3136637,1.1335348,-3.7428411,-0.1779454)"
       gradientUnits="userSpaceOnUse"
       id="radialGradient4836"
       xlink:href="#linearGradient3216"
       inkscape:collect="always" />
    <radialGradient
       gradientUnits="userSpaceOnUse"
       gradientTransform="matrix(0.3692717,0.2732122,-1.1681055,1.5788038,4.6624585,-1.9212414)"
       r="0.50024331"
       fy="3.1787071"
       fx="1.659088"
       cy="3.1787071"
       cx="1.659088"
       id="radialGradient3222"
       xlink:href="#linearGradient3216"
       inkscape:collect="always" />
    <radialGradient
       r="0.98066193"
       fy="3.5139356"
       fx="0.45732221"
       cy="3.5139356"
       cx="0.45732221"
       gradientTransform="matrix(-1.5094931,-0.7048435,0.1377533,-0.2950123,0.3034133,4.5863476)"
       gradientUnits="userSpaceOnUse"
       id="radialGradient3279"
       xlink:href="#linearGradient3216"
       inkscape:collect="always" />
  </defs>
  <sodipodi:namedview
     id="base"
     pagecolor="#ffffff"
     bordercolor="#666666"
     borderopacity="1.0"
     inkscape:pageopacity="1"
     inkscape:pageshadow="2"
     inkscape:zoom="0.175"
     inkscape:cx="827.29561"
     inkscape:cy="519.76191"
     inkscape:document-units="px"
     inkscape:current-layer="layer1"
     showgrid="false"
     units="px"
     width="1600px"
     inkscape:window-width="1920"
     inkscape:window-height="974"
     inkscape:window-x="0"
     inkscape:window-y="43"
     inkscape:window-maximized="1"
     inkscape:snap-grids="false"
     inkscape:snap-to-guides="false"
     inkscape:snap-nodes="false"
     inkscape:snap-global="false" />
  <metadata
     id="metadata7">
    <rdf:RDF>
      <cc:Work
         rdf:about="">
        <dc:format>image/svg+xml</dc:format>
        <dc:type
           rdf:resource="http://purl.org/dc/dcmitype/StillImage" />
        <dc:title></dc:title>
      </cc:Work>
    </rdf:RDF>
  </metadata>
  <g
     inkscape:label="Layer 1"
     inkscape:groupmode="layer"
     id="layer1"
     transform="translate(0,1247.6378)">
    <g
       id="g3958"
       transform="matrix(1.2704431,0,0,1.2704431,1409.0124,470.21743)">
      <g
         transform="translate(-1541.1199,-1583.4171)"
         id="g3982">
        <g
           id="g3662"
           transform="matrix(72.699873,0,0,72.699873,696.37478,482.62165)">
          <ellipse
             transform="matrix(0.9239629,0,0,0.8253146,6.8582426,3.6459816)"
             id="path3426"
             style="opacity:0.78620689;fill:#ade9dd;fill-opacity:1;stroke:none;stroke-width:0.01;stroke-miterlimit:4;stroke-dasharray:none;stroke-opacity:1"
             cx="-6.5869765"
             cy="-2.4866824"
             rx="2.1211436"
             ry="1.9269544" />
          <path
             sodipodi:nodetypes="cccs"
             id="path3409"
             d="M 1.1966846,0.27645913 C -1.1607959,-0.35036956 -1.910631,2.304934 0.42927814,2.2772756 -1.135866,1.318151 0.18470723,-0.28635558 1.5578679,0.51195784 c 0,0 -0.197858,-0.19207228 -0.3611833,-0.23549871 z"
             style="fill:#d7f4ee;fill-rule:evenodd;stroke:#000000;stroke-width:0.00091682;stroke-linecap:butt;stroke-linejoin:miter;stroke-miterlimit:4;stroke-dasharray:none;stroke-opacity:1"
             inkscape:connector-curvature="0" />
          <path
             id="path3407"
             d="m 0.97065429,3.6088629 0,-0.5005758 c -0.003984,0 -1.05957524,0.1782142 -1.05957524,0.1806201 l 0,0.3147952 c 0,0.00241 0.0045614,0.00516 0.008545,0.00516 l 1.05103028,0 z"
             style="fill:#000000;fill-opacity:1;fill-rule:evenodd;stroke:#060606;stroke-width:0.03705655;stroke-miterlimit:4;stroke-dasharray:none;stroke-opacity:1"
             inkscape:connector-curvature="0" />
          <g
             transform="matrix(1.1295799,0,0,1.1295799,7.0253496,3.7562295)"
             id="g2474">
            <path
               id="path2476"
               d="m -0.41517425,7.3363514 c 0,-0.546576 0,-0.8534241 0,-1.4000001"
               inkscape:connector-curvature="0" />
          </g>
          <g
             style="fill:#000000;fill-opacity:1"
             id="g2503"
             transform="matrix(1.7081831,0,0,1.3875546,2.2742819,-2.7321032)" />
          <g
             id="g2486"
             transform="matrix(0.8743597,0,0,0.7244661,1.094008,-0.9991025)">
            <path
               sodipodi:nodetypes="cscc"
               style="fill:#eae8e3;fill-opacity:1;stroke:#000000;stroke-width:0.0424385;stroke-miterlimit:4;stroke-dasharray:none;stroke-opacity:1"
               id="path2488"
               d="m -0.68759414,3.757172 c 0,-0.019337 0.17252964,-0.05884 0.17252964,-0.078178 0,-0.019337 -0.003296,-0.087728 -0.004481,-0.1790066 -0.0510375,-0.018132 -0.0708363,-0.027782 -0.11633742,-0.041673"
               inkscape:connector-curvature="0" />
          </g>
          <g
             transform="matrix(1.1295799,0,0,1.1295799,7.0253496,3.7562295)"
             id="g2490">
            <path
               id="path2492"
               d="m 0.37547174,7.3363514 c 0,-0.546576 0,-0.8534241 0,-1.4000001"
               inkscape:connector-curvature="0" />
          </g>
          <g
             id="g2494"
             transform="matrix(0.8743597,0,0,0.7244661,1.0824454,-0.9799417)">
            <path
               sodipodi:nodetypes="ccscc"
               style="fill:#eae8e3;fill-opacity:1;stroke:#000000;stroke-width:0.0424385;stroke-miterlimit:4;stroke-dasharray:none;stroke-opacity:1"
               id="path2496"
               d="m 0.5961807,3.4583147 c 0.0634262,0.2639489 0.0561922,0.3137132 0.0203419,0.3436702 0.004481,-0.09776 -0.149325,-0.1283168 -0.1501232,-0.1476375 -0.001584,-0.03835 -2.574e-4,-0.057943 0,-0.183488 0.0548158,-0.0048 0.0925865,-0.00974 0.1297813,-0.012545 z"
               inkscape:connector-curvature="0" />
          </g>
          <g
             style="fill-opacity:1"
             id="g2482"
             transform="matrix(0.8743597,0,0,0.7244661,1.0824455,-0.9703614)">
            <path
               sodipodi:nodetypes="csscccccccscccccccssc"
               style="fill:url(#linearGradient3211);fill-opacity:1;stroke:#000000;stroke-width:0.0424385;stroke-linejoin:miter;stroke-miterlimit:4;stroke-dasharray:none;stroke-opacity:1"
               id="path2484"
               d="m 0.73896885,4.1963599 c 0,-0.1 0,-0.2739414 0,-0.3739414 -0.0145398,-0.010349 -0.0342621,-0.020698 -0.0436195,-0.031047 0,-0.081705 0,-0.1634098 0,-0.2451148 -0.0330562,-0.029314 -0.0661125,-0.058628 -0.0991687,-0.087942 0,0.079874 0,0.1597485 0,0.2396228 -0.0654887,-0.040541 -0.13097739,-0.081081 -0.19646609,-0.1216218 0,-0.069341 0,-0.1518891 0,-0.2080224 -0.0320791,-0.05799 -0.21831648,-0.088628 -0.31247473,-0.087942 0,0.071444 0,0.1428884 0,0.2143326 -0.03569704,-0.00922 -0.0687625,-0.011169 -0.10709111,-0.011159 -0.03832775,1.01e-5 -0.07139408,0.00194 -0.10709112,0.011159 0,-0.071444 0,-0.1428883 0,-0.2143326 -0.0941582,-6.859e-4 -0.28039559,0.029952 -0.31247472,0.087942 0,0.056133 0,0.1386816 0,0.2080224 -0.0654887,0.040541 -0.13097743,0.081081 -0.19646612,0.1216218 0,-0.079874 0,-0.1597486 0,-0.2396228 -0.0330562,0.029314 -0.0661125,0.058628 -0.0991687,0.087942 0,0.081705 0,0.1634099 0,0.2451148 -0.009357,0.010349 -0.0290797,0.020698 -0.0436195,0.031047 0,0.1 0,0.2717007 0,0.3717007"
               inkscape:connector-curvature="0" />
          </g>
          <g
             style="fill-opacity:1"
             id="g2478"
             transform="matrix(0.8743597,0,0,0.7244661,1.0824454,-0.9799417)">
            <path
               style="fill:url(#linearGradient3185);fill-opacity:1;stroke:#000000;stroke-width:0.0424385;stroke-miterlimit:4;stroke-dasharray:none;stroke-opacity:1"
               id="path2480"
               d="M 0.37744632,4.4513645 C 0.48530176,4.4353718 0.51547909,4.4152374 0.59064329,4.3826575 0.69068444,4.3392947 0.78196418,4.2079797 0.71406591,4.1224186 0.48813993,3.8377212 0.09199024,3.8550055 -0.03721821,3.8559866 c -0.12391538,9.409e-4 -0.49062425,-0.018265 -0.71655023,0.266432 -0.0678983,0.085561 0.0233815,0.2168761 0.12342268,0.2602389 0.0751641,0.03258 0.10534149,0.052714 0.21319693,0.068707"
               inkscape:connector-curvature="0" />
          </g>
          <g
             style="fill-opacity:1"
             id="g2470"
             transform="matrix(0.8743597,0,0,0.7244661,1.0824454,-0.9320398)">
            <path
               sodipodi:nodetypes="ccscc"
               style="fill:url(#linearGradient3200);fill-opacity:1;stroke:#000000;stroke-width:0.0424385;stroke-miterlimit:4;stroke-dasharray:none;stroke-opacity:1"
               id="path2472"
               d="m 0.37547174,5.8696265 c 0,-0.5574631 3e-8,-1.1851992 3e-8,-1.6611612 -0.0330665,-0.148096 -0.23483933,-0.1589074 -0.40458744,-0.1592308 -0.15911361,-3.031e-4 -0.34488959,0.00438 -0.37795607,0.1524787 -0.002701,0.4782127 -0.008103,1.1104502 -0.008103,1.6679133"
               inkscape:connector-curvature="0" />
          </g>
          <path
             id="path3563"
             d="m 1.0182817,3.6116561 1.1227316,0 c 0.00382,0 0.0082,-0.00268 0.0082,-0.00503 l 0,-0.3067709 c 0,-0.00234 -0.00437,-0.00503 -0.0082,-0.00503 l -1.1227316,-0.170987 0,0.4878158 z"
             style="fill:#c83771;fill-opacity:1;fill-rule:evenodd;stroke:#060606;stroke-width:0.03582454;stroke-miterlimit:4;stroke-dasharray:none;stroke-opacity:1"
             inkscape:connector-curvature="0" />
          <path
             id="rect3353"
             d="m 1.0223693,3.607534 0,-0.4780763 c -0.00595,0 -1.58263338,0.1702041 -1.58263338,0.1725016 l 0,0.3006461 c 0,0.0023 0.006813,0.00493 0.0127632,0.00493 l 1.56987018,0 z"
             style="fill:#782144;fill-opacity:1;fill-rule:evenodd;stroke:#060606;stroke-width:0.04425912;stroke-miterlimit:4;stroke-dasharray:none;stroke-opacity:1"
             inkscape:connector-curvature="0" />
          <path
             id="path3300"
             d="m 2.0563457,2.8361795 c 0.1306841,-0.037316 0.326438,-0.091825 0.4340459,-0.1562966 0.042864,0.1581176 -0.3715198,0.4434379 -0.423261,0.1883212 l -0.010785,-0.032025 -2e-7,0 z"
             style="fill:#000000;fill-rule:evenodd;stroke:#000000;stroke-width:0.00042746;stroke-linecap:butt;stroke-linejoin:miter;stroke-miterlimit:4;stroke-dasharray:none;stroke-opacity:1"
             inkscape:connector-curvature="0" />
          <path
             id="path3302"
             d="M 1.7557137,3.6210436 C 2.6073804,3.0904745 2.3139771,1.5560403 1.8250892,1.302591 2.5988277,2.0974257 1.544066,3.1983084 1.1660219,3.6114632 c 0.1960602,0.011559 0.3944675,-0.015861 0.5896918,0.00958 z"
             style="fill:#000000;fill-rule:evenodd;stroke:#000000;stroke-width:0.00059538;stroke-linecap:butt;stroke-linejoin:miter;stroke-miterlimit:4;stroke-dasharray:none;stroke-opacity:1"
             inkscape:connector-curvature="0" />
          <path
             id="path3308"
             d="m 2.1484974,2.0617723 c 0.038145,-0.019863 0.1097388,-0.1041341 0.1271119,-0.1765055 0.011217,-0.046726 0,-0.1016017 0,-0.1493509 0,-0.065521 0.062603,0.066564 0.088,0.1018301 0.059208,0.082216 0.033479,0.1824818 0.00978,0.2647583 -0.015832,0.054959 -0.073103,0.081464 -0.1466676,0.081464 -0.036019,0 -0.071866,-0.070601 -0.078223,-0.088253 -0.00395,-0.010977 0,-0.022629 0,-0.033943 z"
             style="fill:#000000;fill-rule:evenodd;stroke:#000000;stroke-width:0.00046088;stroke-linecap:butt;stroke-linejoin:miter;stroke-miterlimit:4;stroke-dasharray:none;stroke-opacity:1"
             inkscape:connector-curvature="0" />
          <path
             sodipodi:nodetypes="cccc"
             id="path3290"
             d="M 2.0677815,2.5960091 C 2.101781,2.5005461 1.8616495,2.3111187 1.8124057,2.2702365 c 0.011657,0.09381 0.017453,0.3306133 0.1276436,0.3689692 0.1027573,-0.018643 0.075374,-0.044857 0.1277322,-0.043197 z"
             style="fill:#b7c8b7;fill-rule:evenodd;stroke:#000000;stroke-width:0.0356754;stroke-linecap:butt;stroke-linejoin:miter;stroke-miterlimit:4;stroke-dasharray:none;stroke-opacity:1"
             inkscape:connector-curvature="0" />
          <path
             id="path3313"
             d="m 1.6439704,3.7047342 c 0.504163,0.1672657 0.8929783,-0.4855883 0.8210104,-0.5316206 0.00862,0.4282043 -0.964406,0.2407257 -0.92056,0.4387273 l 0.09955,0.092893 0,0 z"
             style="fill:#000000;fill-rule:evenodd;stroke:#000000;stroke-width:0.00026752;stroke-linecap:butt;stroke-linejoin:miter;stroke-miterlimit:4;stroke-dasharray:none;stroke-opacity:1"
             inkscape:connector-curvature="0" />
          <path
             sodipodi:nodetypes="csssssc"
             id="path3294"
             d="M 1.7404415,3.1458541 C 1.696969,3.1381706 1.6297931,3.0979671 1.6009585,3.0439605 1.5816537,3.0078028 1.5152469,2.9399847 1.5152469,2.7722633 c 0,-0.052868 -0.00418,-0.0231 -0.046955,0.070379 -0.064758,0.141536 -0.046373,0.2315308 -0.032692,0.3094327 0.018689,0.1064124 0.036809,0.1812566 0.079073,0.1970885 0.030755,0.011521 0.2464643,-0.043225 0.2257681,-0.2033095 z"
             style="fill:#008000;fill-rule:evenodd;stroke:#000000;stroke-width:0.03459945;stroke-linecap:butt;stroke-linejoin:miter;stroke-miterlimit:4;stroke-dasharray:none;stroke-opacity:1"
             inkscape:connector-curvature="0" />
          <g
             transform="translate(-0.0104402,-0.0104402)"
             id="g4832">
            <path
               style="fill:url(#radialGradient4836);fill-opacity:1;fill-rule:evenodd;stroke:#000000;stroke-width:0.0338;stroke-linecap:butt;stroke-linejoin:miter;stroke-miterlimit:4;stroke-dasharray:none;stroke-opacity:1"
               d="M 1.0058869,3.3227034 C 0.49427409,3.0203031 -0.2064151,2.3603997 -0.08359011,2.0006012 -0.36437583,2.5606591 0.31656159,3.5200249 0.9503013,3.485571 L 0.9864272,3.4091 1.0058869,3.322704 l 0,1e-7 z"
               id="path3371"
               inkscape:connector-curvature="0" />
            <path
               style="fill:#000000;fill-rule:evenodd;stroke:#000000;stroke-width:0.00059538;stroke-linecap:butt;stroke-linejoin:miter;stroke-miterlimit:4;stroke-dasharray:none;stroke-opacity:1"
               d="m 0.21963739,2.6616528 c -0.1045818,0.06499 0.0968795,0.2542062 0.1503135,0.2874115 0.1145331,0.071174 0.1927306,-0.039415 0.2543769,-0.124545 C 0.7097574,2.7065456 0.7358394,2.5507434 0.7746414,2.4221432 0.7928105,2.3619256 0.7951562,2.2147717 0.7630787,2.3742413 0.7411959,2.48303 0.64725459,2.5601664 0.54338979,2.5945901 c -0.1096585,0.036344 -0.2249582,0.00158 -0.3237524,0.067063 z"
               id="path3379"
               inkscape:connector-curvature="0" />
          </g>
          <g
             transform="translate(0.1148422,0)"
             id="g4825">
            <path
               style="fill:#000000;fill-rule:evenodd;stroke:#000000;stroke-width:0.00040467;stroke-linecap:butt;stroke-linejoin:miter;stroke-miterlimit:4;stroke-dasharray:none;stroke-opacity:1"
               d="m -0.59074164,2.5462604 c -0.0503434,-0.1168573 0.0529974,-0.3289279 0.0366963,-0.4193119 -0.10577617,0.1121122 -0.2921933,0.5069231 -0.0366963,0.4193119 l 0,0 z"
               id="path3373"
               inkscape:connector-curvature="0" />
            <path
               style="fill:#000000;fill-rule:evenodd;stroke:#000000;stroke-width:0.00059538;stroke-linecap:butt;stroke-linejoin:miter;stroke-miterlimit:4;stroke-dasharray:none;stroke-opacity:1"
               d="m 0.24910769,3.390176 c 0.0174749,-0.043452 -0.1743543,0.2115029 -0.460174,0.3299431 -0.1794376,0.074357 -0.31746659,0.083722 -0.0930593,0.1456801 0.1317869,0.036386 0.4166275,-0.01197 0.5429414,-0.064313 0.1130671,-0.046854 0.1434228,-0.079173 0.1964756,-0.1671111 0.008617,-0.014282 0.017233,-0.028565 0.0258495,-0.042847 0.0377582,-0.062586 0.0525818,-0.121153 -0.0362143,-0.1456693 -0.0821322,-0.022676 -0.1482685,0.027984 -0.1758189,-0.055684 z"
               id="path3375"
               inkscape:connector-curvature="0" />
            <path
               style="fill:#000000;fill-rule:evenodd;stroke:#000000;stroke-width:0.00059538;stroke-linecap:butt;stroke-linejoin:miter;stroke-miterlimit:4;stroke-dasharray:none;stroke-opacity:1"
               d="m -0.12757471,3.2460412 c -0.0631194,0.026195 -0.1521867,0.065715 -0.26319572,0.07892 -0.16861414,0.020057 -0.37253514,-0.062268 -0.53026784,-0.1057319 -0.31145503,-0.085822 0.0121273,-0.027413 0.0877235,-0.036405 0.16060016,-0.019104 0.27013953,-0.1100447 0.41672453,-0.1274811 0.10946977,-0.013022 0.20911592,0.083248 0.23413151,0.145286 0.008193,0.020318 0.0365894,0.030275 0.054884,0.045412 z"
               id="path3377"
               inkscape:connector-curvature="0" />
            <path
               style="fill:#000000;fill-rule:evenodd;stroke:#000000;stroke-width:0.00059538;stroke-linecap:butt;stroke-linejoin:miter;stroke-miterlimit:4;stroke-dasharray:none;stroke-opacity:1"
               d="m -0.52036799,2.9203231 c 0.25554968,-0.093473 0.43411738,-0.3104246 0.39181668,-0.5395699 -0.0569388,0.2311737 -0.69960224,0.1848844 -0.50744243,0.491668 l 0.0543449,0.023139 0.0612809,0.024763 -7e-8,0 z"
               id="path3381"
               inkscape:connector-curvature="0" />
            <path
               sodipodi:nodetypes="cccc"
               style="fill:url(#radialGradient4815);fill-opacity:1;fill-rule:evenodd;stroke:#000000;stroke-width:0.0338;stroke-linecap:butt;stroke-linejoin:miter;stroke-miterlimit:4;stroke-dasharray:none;stroke-opacity:1"
               d="M 0.7630789,3.2556365 C -0.02095301,3.1605842 -1.1514334,2.4448261 -0.53193059,1.8856417 -1.9415413,2.2766345 -0.2451225,3.7834655 0.7399537,3.543048 0.8998338,3.4847548 0.9711415,3.3118145 0.7630789,3.2556365 Z"
               id="path3384"
               inkscape:connector-curvature="0" />
          </g>
          <path
             id="path3386"
             d="m 3.24254,7.886564 c 0,0 0,0 0,0 z"
             style="fill:none;fill-rule:evenodd;stroke:#000000;stroke-width:1px;stroke-linecap:butt;stroke-linejoin:miter;stroke-opacity:1"
             inkscape:connector-curvature="0" />
          <path
             id="path2513"
             d="M 1.790508,3.5845252 C 2.3987432,3.1823028 2.2991962,1.9522119 2.1048262,1.7579568 2.1571029,2.0686341 2.1536957,2.3861363 1.803506,2.8865677 1.581237,3.2041967 1.3775355,3.4596084 1.2537446,3.5884858 c 0.060672,0.022013 0.4788587,-0.035818 0.5367634,-0.00396 z"
             style="fill:url(#radialGradient3222);fill-opacity:1;fill-rule:evenodd;stroke:#000000;stroke-width:0.00029226;stroke-linecap:butt;stroke-linejoin:miter;stroke-miterlimit:4;stroke-dasharray:none;stroke-opacity:1"
             sodipodi:nodetypes="ccscc"
             inkscape:connector-curvature="0" />
          <path
             sodipodi:nodetypes="ccss"
             id="path3310"
             d="M 1.6643851,3.6654683 C 1.8686613,3.7843011 2.2026377,3.5728859 2.2797195,3.4462214 2.0415254,3.5138295 1.4452038,3.5379648 1.6372653,3.649692 l 0.02712,0.015776 z"
             style="fill:#536c53;fill-rule:evenodd;stroke:#000000;stroke-width:0.00021769;stroke-linecap:butt;stroke-linejoin:miter;stroke-miterlimit:4;stroke-dasharray:none;stroke-opacity:1"
             inkscape:connector-curvature="0" />
        </g>
        <text
           xml:space="preserve"
           style="font-style:normal;font-weight:normal;font-size:40px;line-height:125%;font-family:Sans;letter-spacing:0px;word-spacing:0px;fill:#000000;fill-opacity:1;stroke:none;stroke-width:1px;stroke-linecap:butt;stroke-linejoin:miter;stroke-opacity:1"
           x="553.5636"
           y="805.88501"
           id="text3978"
           sodipodi:linespacing="125%"><tspan
             sodipodi:role="line"
             id="tspan3980"
             x="553.5636"
             y="805.88501">Castle Game Engine</tspan></text>
      </g>
      <g
         transform="translate(-1100.0001,-1340)"
         id="g4893">
        <image
           sodipodi:absref="/home/michalis/sources/castle-engine/trunk/www/android-components-icons/Android_Robot_200.png"
           xlink:href="Android_Robot_200.png"
           y="235.61407"
           x="658.74097"
           id="image4084"
           style="image-rendering:optimizeQuality"
           preserveAspectRatio="none"
           height="295.18542"
           width="252.29523" />
        <text
           xml:space="preserve"
           style="font-style:normal;font-weight:normal;font-size:40px;line-height:125%;font-family:Sans;letter-spacing:0px;word-spacing:0px;fill:#000000;fill-opacity:1;stroke:none;stroke-width:1px;stroke-linecap:butt;stroke-linejoin:miter;stroke-opacity:1"
           x="701.0459"
           y="567.48895"
           id="text4087"
           sodipodi:linespacing="125%"><tspan
             sodipodi:role="line"
             id="tspan4089"
             x="701.0459"
             y="567.48895">Android</tspan></text>
      </g>
      <rect
         ry="74.696655"
         y="-1182.4073"
         x="-1054.3389"
         height="534.70374"
         width="967.63031"
         id="rect4898"
         style="fill:none;stroke:#000000;stroke-width:4.31953335;stroke-linecap:butt;stroke-linejoin:miter;stroke-miterlimit:0.69999999;stroke-dasharray:none;stroke-opacity:1" />
      <g
         transform="matrix(0.76611082,0,0,0.76611082,-909.34078,-1250.3969)"
         id="g4913">
        <rect
           style="fill:#808080;fill-opacity:1;stroke:none;stroke-width:5;stroke-linecap:butt;stroke-linejoin:miter;stroke-miterlimit:0.69999999;stroke-dasharray:none;stroke-opacity:1"
           id="rect4900"
           width="131.31982"
           height="24.243662"
           x="424.26407"
           y="373.53964"
           ry="12.121831" />
        <rect
           ry="12.121831"
           y="479.82245"
           x="-453.34167"
           height="24.243662"
           width="131.31982"
           id="rect4911"
           style="fill:#808080;fill-opacity:1;stroke:none;stroke-width:5;stroke-linecap:butt;stroke-linejoin:miter;stroke-miterlimit:0.69999999;stroke-dasharray:none;stroke-opacity:1"
           transform="matrix(0,-1,1,0,0,0)" />
      </g>
    </g>
    <text
       xml:space="preserve"
       style="font-style:normal;font-weight:normal;font-size:40px;line-height:125%;font-family:Sans;letter-spacing:0px;word-spacing:0px;fill:#000000;fill-opacity:1;stroke:none;stroke-width:1px;stroke-linecap:butt;stroke-linejoin:miter;stroke-opacity:1"
       x="591.14563"
       y="-1106.3516"
       id="text4917"
       sodipodi:linespacing="125%"><tspan
         sodipodi:role="line"
         id="tspan4919"
         x="591.14563"
         y="-1106.3516"
         style="font-style:normal;font-variant:normal;font-weight:bold;font-stretch:normal;font-size:75px;line-height:125%;font-family:Sans;-inkscape-font-specification:'Sans, Bold';text-align:start;writing-mode:lr-tb;text-anchor:start">Castle Game Engine Android components</tspan></text>
    <g
       id="g3916"
       transform="translate(2875.9586,-579.97114)">
      <rect
         ry="52.857143"
         y="-147.63788"
         x="-734.28571"
         height="329.40829"
         width="696.59314"
         id="rect5041"
         style="fill:none;fill-opacity:1;stroke:#000000;stroke-width:5;stroke-linecap:butt;stroke-linejoin:miter;stroke-miterlimit:0.69999999;stroke-dasharray:none;stroke-opacity:1" />
      <image
         sodipodi:absref="/home/michalis/sources/castle-engine/trunk/www/android-components-icons/giftiz.png"
         xlink:href="giftiz.png"
         width="578.67743"
         height="194.18704"
         preserveAspectRatio="none"
         style="image-rendering:optimizeQuality"
         id="image5102"
         x="-694.82703"
         y="-99.401596" />
    </g>
    <g
       id="g3908"
       transform="translate(-2020.3051,181.82746)">
      <text
         sodipodi:linespacing="125%"
         id="text3970"
         y="350.26202"
         x="2175.0112"
         style="font-style:normal;font-weight:normal;font-size:40px;line-height:125%;font-family:Sans;letter-spacing:0px;word-spacing:0px;fill:#000000;fill-opacity:1;stroke:none;stroke-width:1px;stroke-linecap:butt;stroke-linejoin:miter;stroke-opacity:1"
         xml:space="preserve"><tspan
           y="350.26202"
           x="2175.0112"
           id="tspan3972"
           sodipodi:role="line">Analytics:</tspan><tspan
           id="tspan3974"
           y="400.26202"
           x="2175.0112"
           sodipodi:role="line" /></text>
      <rect
         ry="77.143867"
         y="256.20877"
         x="2084.1335"
         height="557.53094"
         width="883.44818"
         id="rect4975"
         style="fill:none;fill-opacity:1;stroke:#000000;stroke-width:5.99839449;stroke-linecap:butt;stroke-linejoin:miter;stroke-miterlimit:0.69999999;stroke-dasharray:none;stroke-opacity:1" />
      <image
         sodipodi:absref="/home/michalis/sources/castle-engine/trunk/www/android-components-icons/GameAnalytics-Logo-400x113.png"
         xlink:href="GameAnalytics-Logo-400x113.png"
         width="496.63715"
         height="140.3"
         preserveAspectRatio="none"
         style="image-rendering:optimizeQuality"
         id="image5038"
         x="2177.1428"
         y="413.00507" />
      <image
         sodipodi:absref="/home/michalis/sources/castle-engine/trunk/www/android-components-icons/google-analytics-logo.png"
         xlink:href="google-analytics-logo.png"
         width="629.93616"
         height="98.362122"
         preserveAspectRatio="none"
         style="image-rendering:optimizeQuality"
         id="image5172"
         x="2186.6426"
         y="623.14783" />
    </g>
    <g
       id="g3878"
       transform="translate(599.68399,463.97691)">
      <g
         transform="translate(-948.57143,-45.714284)"
         id="g6190">
        <image
           sodipodi:absref="/home/michalis/sources/castle-engine/trunk/www/android-components-icons/google_play_games.png"
           xlink:href="google_play_games.png"
           y="228.8669"
           x="1523.8854"
           id="image3844"
           style="image-rendering:optimizeQuality"
           preserveAspectRatio="none"
           height="198.6179"
           width="198.6179" />
        <text
           xml:space="preserve"
           style="font-style:normal;font-weight:normal;font-size:40px;line-height:125%;font-family:Sans;letter-spacing:0px;word-spacing:0px;fill:#000000;fill-opacity:1;stroke:none;stroke-width:1px;stroke-linecap:butt;stroke-linejoin:miter;stroke-opacity:1"
           x="1437.5345"
           y="479.02289"
           id="text3847"
           sodipodi:linespacing="125%"><tspan
             sodipodi:role="line"
             id="tspan3849"
             x="1437.5345"
             y="479.02289">Google Play Games</tspan></text>
      </g>
      <rect
         ry="74.696701"
         y="-282.27017"
         x="427.53156"
         height="811.34442"
         width="908.28436"
         id="rect4977"
         style="fill:none;fill-opacity:1;stroke:#000000;stroke-width:5;stroke-linecap:butt;stroke-linejoin:miter;stroke-miterlimit:0.69999999;stroke-dasharray:none;stroke-opacity:1" />
      <image
         sodipodi:absref="/home/michalis/sources/castle-engine/trunk/www/android-components-icons/Google_Play_logo.png"
         xlink:href="Google_Play_logo.png"
         y="-77.852135"
         x="501.85709"
         id="image6183"
         style="image-rendering:optimizeQuality"
         preserveAspectRatio="none"
         height="129"
         width="562" />
      <text
         sodipodi:linespacing="125%"
         id="text6186"
         y="-150.49496"
         x="500"
         style="font-style:normal;font-weight:normal;font-size:40px;line-height:125%;font-family:Sans;letter-spacing:0px;word-spacing:0px;fill:#000000;fill-opacity:1;stroke:none;stroke-width:1px;stroke-linecap:butt;stroke-linejoin:miter;stroke-opacity:1"
         xml:space="preserve"><tspan
           y="-150.49496"
           x="500"
           id="tspan6188"
           sodipodi:role="line">Google Play and related services:</tspan></text>
      <text
         sodipodi:linespacing="125%"
         id="text3427"
         y="120.93357"
         x="502.85715"
         style="font-style:normal;font-weight:normal;font-size:40px;line-height:125%;font-family:Sans;letter-spacing:0px;word-spacing:0px;fill:#000000;fill-opacity:1;stroke:none;stroke-width:1px;stroke-linecap:butt;stroke-linejoin:miter;stroke-opacity:1"
         xml:space="preserve"><tspan
           y="120.93357"
           x="502.85715"
           id="tspan3429"
           sodipodi:role="line">Google Play with <tspan
   id="tspan3431"
   style="font-weight:bold">In-app Purchases</tspan></tspan></text>
    </g>
    <g
       id="g3899"
       transform="translate(-36.568542,920.07566)">
      <image
         sodipodi:absref="/home/michalis/sources/castle-engine/trunk/www/android-components-icons/admob.png"
         xlink:href="admob.png"
         width="393"
         height="96"
         preserveAspectRatio="none"
         style="image-rendering:optimizeQuality"
         id="image3901"
         x="2154.8276"
         y="-580.14996" />
      <image
         sodipodi:absref="/home/michalis/sources/castle-engine/trunk/www/android-components-icons/chartboost.png"
         xlink:href="chartboost.png"
         width="524.05078"
         height="102.66492"
         preserveAspectRatio="none"
         style="image-rendering:optimizeQuality"
         id="image3963"
         x="2119.2749"
         y="-449.29318" />
      <text
         sodipodi:linespacing="125%"
         id="text3966"
         y="-645.71783"
         x="2147.2771"
         style="font-style:normal;font-weight:normal;font-size:40px;line-height:125%;font-family:Sans;letter-spacing:0px;word-spacing:0px;fill:#000000;fill-opacity:1;stroke:none;stroke-width:1px;stroke-linecap:butt;stroke-linejoin:miter;stroke-opacity:1"
         xml:space="preserve"><tspan
           y="-645.71783"
           x="2147.2771"
           id="tspan3968"
           sodipodi:role="line">Advertisements:</tspan></text>
      <rect
         ry="74.696701"
         y="-741.92352"
         x="2053.8796"
         height="807.76941"
         width="815.8548"
         id="rect4973"
         style="fill:none;fill-opacity:1;stroke:#000000;stroke-width:5;stroke-linecap:butt;stroke-linejoin:miter;stroke-miterlimit:0.69999999;stroke-dasharray:none;stroke-opacity:1" />
      <image
         sodipodi:absref="/home/michalis/sources/castle-engine/trunk/www/android-components-icons/heyzap-logo-550x204.png"
         xlink:href="heyzap-logo-550x204.png"
         width="397.54797"
         height="145.28572"
         preserveAspectRatio="none"
         style="image-rendering:optimizeQuality"
         id="image3644"
         x="2150.7144"
         y="-312.42352" />
      <image
         sodipodi:absref="/home/michalis/sources/castle-engine/trunk/www/android-components-icons/startapp.jpg"
         xlink:href="startapp.jpg"
         width="511.89243"
         height="115.02523"
         preserveAspectRatio="none"
         style="image-rendering:optimizeQuality"
         id="image3805"
         x="2115.9783"
         y="-145.41914" />
    </g>
    <g
       id="g3944"
       transform="translate(1741.503,-432.34529)">
      <image
         sodipodi:absref="/home/michalis/sources/castle-engine/trunk/www/android-components-icons/mobile120.png"
         xlink:href="mobile120.png"
         width="314.0101"
         height="314.0101"
         preserveAspectRatio="none"
         style="image-rendering:optimizeQuality"
         id="image3867"
         x="-1589.1982"
         y="388.26053" />
      <text
         sodipodi:linespacing="125%"
         id="text3870"
         y="753.35706"
         x="-1519.2694"
         style="font-style:normal;font-weight:normal;font-size:40px;line-height:125%;font-family:Sans;letter-spacing:0px;word-spacing:0px;fill:#000000;fill-opacity:1;stroke:none;stroke-width:1px;stroke-linecap:butt;stroke-linejoin:miter;stroke-opacity:1"
         xml:space="preserve"><tspan
           y="753.35706"
           x="-1519.2694"
           id="tspan3872"
           sodipodi:role="line">Vibrations</tspan></text>
      <rect
         ry="74.696701"
         y="288.6868"
         x="-1660.6908"
         height="537.40118"
         width="488.91394"
         id="rect3874"
         style="fill:none;fill-opacity:1;stroke:#000000;stroke-width:5;stroke-linecap:butt;stroke-linejoin:miter;stroke-miterlimit:0.69999999;stroke-dasharray:none;stroke-opacity:1" />
    </g>
    <path
       style="fill:none;fill-rule:evenodd;stroke:#000000;stroke-width:5;stroke-linecap:butt;stroke-linejoin:miter;stroke-miterlimit:4;stroke-dasharray:none;stroke-opacity:1;marker-end:url(#Arrow1Lend)"
       d="m 1325.3201,-747.72963 767.7755,192.76581"
       id="path4814"
       inkscape:connector-curvature="0"
       sodipodi:nodetypes="cc"
       inkscape:export-xdpi="90"
       inkscape:export-ydpi="90" />
    <path
       style="fill:none;fill-rule:evenodd;stroke:#000000;stroke-width:5;stroke-linecap:butt;stroke-linejoin:miter;stroke-miterlimit:4;stroke-dasharray:none;stroke-opacity:1;marker-end:url(#marker5136)"
       d="m 1353.5084,-597.76396 775.063,455.84046"
       id="path5128"
       inkscape:connector-curvature="0"
       sodipodi:nodetypes="cc" />
    <path
       style="fill:none;fill-rule:evenodd;stroke:#000000;stroke-width:5;stroke-linecap:butt;stroke-linejoin:miter;stroke-miterlimit:4;stroke-dasharray:none;stroke-opacity:1;marker-end:url(#marker5186)"
       d="M 1336.1624,-462.86909 2020,132.36216"
       id="path5178"
       inkscape:connector-curvature="0"
       sodipodi:nodetypes="cc" />
    <path
       style="fill:none;fill-rule:evenodd;stroke:#000000;stroke-width:5;stroke-linecap:butt;stroke-linejoin:miter;stroke-miterlimit:4;stroke-dasharray:none;stroke-opacity:1;marker-end:url(#marker5234)"
       d="M 1204.9021,-316.49639 1425.7143,155.2193"
       id="path5226"
       inkscape:connector-curvature="0"
       sodipodi:nodetypes="cc" />
    <path
       style="fill:none;fill-rule:evenodd;stroke:#000000;stroke-width:5;stroke-linecap:butt;stroke-linejoin:miter;stroke-miterlimit:4;stroke-dasharray:none;stroke-opacity:1;marker-end:url(#marker5284)"
       d="M 950.12612,-310.69799 777.14286,366.6479"
       id="path5276"
       inkscape:connector-curvature="0"
       sodipodi:nodetypes="cc" />
    <path
       style="fill:none;fill-rule:evenodd;stroke:#000000;stroke-width:5;stroke-linecap:butt;stroke-linejoin:miter;stroke-opacity:1;stroke-miterlimit:4;stroke-dasharray:none;marker-end:url(#marker5400)"
       d="M 686.90373,-301.24221 585.88848,-159.8209"
       id="path5392"
       inkscape:connector-curvature="0" />
    <g
       id="g4304"
       transform="translate(-36.162441,13.305298)">
      <image
         sodipodi:absref="/home/michalis/sources/castle-engine/trunk/www/android-components-icons/OpenAL_logo.png"
         xlink:href="OpenAL_logo.png"
         width="497.85715"
         height="270.50238"
         preserveAspectRatio="none"
         style="image-rendering:optimizeQuality"
         id="image3706"
         x="2289.6177"
         y="-273.88147" />
      <rect
         ry="77.143898"
         y="-334.57639"
         x="2222.6287"
         height="427.10083"
         width="643.46631"
         id="rect3709"
         style="fill:none;fill-opacity:1;stroke:#000000;stroke-width:5;stroke-linecap:butt;stroke-linejoin:miter;stroke-miterlimit:0.69999999;stroke-dasharray:none;stroke-opacity:1" />
      <text
         sodipodi:linespacing="125%"
         id="text4298"
         y="52.362114"
         x="2332.8992"
         style="font-style:normal;font-weight:normal;font-size:40px;line-height:125%;font-family:Sans;letter-spacing:0px;word-spacing:0px;fill:#000000;fill-opacity:1;stroke:none;stroke-width:1px;stroke-linecap:butt;stroke-linejoin:miter;stroke-opacity:1"
         xml:space="preserve"><tspan
           y="52.362114"
           x="2332.8992"
           id="tspan4300"
           sodipodi:role="line">Sound (possibly 3D)</tspan></text>
    </g>
  </g>
</svg>
